HIERARCHY
ROOT Bip001_Pelvis
{
  OFFSET 34.4345 95.6767 -26.8758
  CHANNELS 6 Xposition Yposition Zposition Zrotation Xrotation Yrotation
  JOINT Bip001_Spine
  {
    OFFSET 1.4188e-005 10.2191 -0.0116013
    CHANNELS 3 Zrotation Xrotation Yrotation
    JOINT Bip001_L_Thigh
    {
      OFFSET 11.0458 -10.2192 0.0116197
      CHANNELS 3 Zrotation Xrotation Yrotation
      JOINT Bip001_L_Calf
      {
        OFFSET -0.707118 -44.0221 0.360014
        CHANNELS 3 Zrotation Xrotation Yrotation
        JOINT Bip001_L_Foot
        {
          OFFSET -0.651902 -40.5938 -3.56146
          CHANNELS 3 Zrotation Xrotation Yrotation
          JOINT Bip001_L_Toe0
          {
            OFFSET 0.0530839 -10.2181 13.1504
            CHANNELS 3 Zrotation Xrotation Yrotation
            End Site
            {
              OFFSET -1.02532e-005 0 7.55606
            }
          }
        }
      }
    }
    JOINT Bip001_R_Thigh
    {
      OFFSET -11.0458 -10.2191 0.0115893
      CHANNELS 3 Zrotation Xrotation Yrotation
      JOINT Bip001_R_Calf
      {
        OFFSET 0.706994 -44.0221 0.35984
        CHANNELS 3 Zrotation Xrotation Yrotation
        JOINT Bip001_R_Foot
        {
          OFFSET 0.651786 -40.5938 -3.5613
          CHANNELS 3 Zrotation Xrotation Yrotation
          JOINT Bip001_R_Toe0
          {
            OFFSET -0.0531479 -10.2181 13.1504
            CHANNELS 3 Zrotation Xrotation Yrotation
            End Site
            {
              OFFSET -1.02894e-005 0 7.55606
            }
          }
        }
      }
    }
    JOINT Bip001_Spine1
    {
      OFFSET 1.87041e-005 14.5736 1.08638
      CHANNELS 3 Zrotation Xrotation Yrotation
      JOINT Bip001_Spine2
      {
        OFFSET 2.24614e-005 14.5058 -1.69078
        CHANNELS 3 Zrotation Xrotation Yrotation
        JOINT Bip001_Neck
        {
          OFFSET 2.20278e-005 15.3945 -0.489414
          CHANNELS 3 Zrotation Xrotation Yrotation
          JOINT Bip001_L_Clavicle
          {
            OFFSET 6.06036 -0.000579998 0.00836775
            CHANNELS 3 Zrotation Xrotation Yrotation
            JOINT Bip001_L_UpperArm
            {
              OFFSET 11.5509 -0.0600302 0.00193952
              CHANNELS 3 Zrotation Xrotation Yrotation
              JOINT Bip001_L_Forearm
              {
                OFFSET 25.9523 0.0806089 -2.15551
                CHANNELS 3 Zrotation Xrotation Yrotation
                JOINT Bip001_L_Hand
                {
                  OFFSET 32.2475 0.153767 1.63968
                  CHANNELS 3 Zrotation Xrotation Yrotation
                  JOINT Bip001_L_Finger0
                  {
                    OFFSET 6.04639 -2.20976 5.90322
                    CHANNELS 3 Zrotation Xrotation Yrotation
                    End Site
                    {
                      OFFSET 4.22375 -1.43895 0.606485
                    }
                  }
                  JOINT Bip001_L_Finger1
                  {
                    OFFSET 11.0826 -0.704819 -0.198153
                    CHANNELS 3 Zrotation Xrotation Yrotation
                    End Site
                    {
                      OFFSET 6.20027 -0.397518 -0.0787166
                    }
                  }
                }
              }
            }
          }
          JOINT Bip001_R_Clavicle
          {
            OFFSET -6.06037 -0.000563197 0.00835105
            CHANNELS 3 Zrotation Xrotation Yrotation
            JOINT Bip001_R_UpperArm
            {
              OFFSET -11.5509 -0.0599978 0.00190698
              CHANNELS 3 Zrotation Xrotation Yrotation
              JOINT Bip001_R_Forearm
              {
                OFFSET -25.9523 0.0806822 -2.15589
                CHANNELS 3 Zrotation Xrotation Yrotation
                JOINT Bip001_R_Hand
                {
                  OFFSET -32.2475 0.153859 1.63989
                  CHANNELS 3 Zrotation Xrotation Yrotation
                  JOINT Bip001_R_Finger0
                  {
                    OFFSET -6.04641 -2.20976 5.90317
                    CHANNELS 3 Zrotation Xrotation Yrotation
                    End Site
                    {
                      OFFSET -4.22376 -1.43895 0.60647
                    }
                  }
                  JOINT Bip001_R_Finger1
                  {
                    OFFSET -11.0826 -0.704794 -0.198182
                    CHANNELS 3 Zrotation Xrotation Yrotation
                    End Site
                    {
                      OFFSET -6.20028 -0.397504 -0.0787333
                    }
                  }
                }
              }
            }
          }
          JOINT Bip001_Head
          {
            OFFSET 1.09673e-005 11.2744 2.05948
            CHANNELS 3 Zrotation Xrotation Yrotation
            End Site
            {
              OFFSET 2.89576e-005 20.8808 -2.77728e-005
            }
          }
        }
      }
    }
  }
}
MOTION
Frames:	8
Frame Time:	0.04
45.5123 88.527 -27.6084 -1.57055 -8.00203 -31.0545 0.987756 4.46059 -1.79267 -0.375637 -5.99742 16.7995 -12.9176 37.4354 30.5438 5.59587 -25.5216 1.10157 0.120277 -4.65604 1.41857 -11.9635 -22.1898 8.06027 -6.2224 39.6432 10.5605 -6.76129 -16.5767 9.43854 5.90965 -17.634 6.1042 2.12717 8.88719 -3.67984 2.12372 8.88728 -3.67929 2.01034 -2.73413 10.6289 -15.9032 8.85235 -20.4505 -53.3002 33.5626 6.62531 10.1167 -9.9403 -33.3889 11.7424 -0.819635 -4.69681 3.18055e-015 -1.2921e-015 -8.94531e-016 -2.17247e-032 -1.39149e-015 -8.94531e-016 21.0307 3.89792 3.32037 43.6238 -63.1343 -18.1398 -29.5255 -3.4108 72.5986 -32.0533 -46.9066 -11.1999 -3.18055e-015 1.98785e-016 -1.98785e-016 -3.18055e-015 -7.95139e-016 -5.96354e-016 -5.90307 -2.15235 12.1453 
45.6949 88.176 -27.4007 -1.9679 -8.6509 -30.0919 0.982184 4.50233 -1.66069 0.0419402 -5.68394 16.6117 -13.5775 38.9113 30.4007 3.62155 -27.7563 0.838499 -0.446149 -3.1034 1.71558 -12.0817 -21.5192 7.65873 -6.56043 40.6413 10.9213 -7.29936 -16.8948 8.64991 6.0823 -17.9977 6.19624 2.09937 8.97345 -3.41242 2.10259 8.97328 -3.41344 2.29224 -3.89827 9.44235 -16.1717 9.7279 -19.2581 -54.474 33.3811 6.94746 10.5133 -9.31755 -34.1383 11.4194 -0.64969 -4.85751 6.36111e-015 3.97569e-016 1.98785e-016 6.36111e-015 9.93924e-016 -3.97569e-016 20.6612 5.8621 5.48815 52.353 -64.2843 -8.3961 -28.9543 -2.30322 75.5462 -35.8224 -48.5928 -12.4534 2.75869e-032 -7.95139e-016 1.98785e-015 3.18055e-015 -7.95139e-016 1.59028e-015 -6.18379 -0.467333 11.1289 
45.9142 87.9891 -27.2953 -1.94513 -9.16241 -28.9573 0.872081 4.46652 -1.39869 0.074531 -5.54001 15.5168 -14.2168 39.7094 30.8713 1.54798 -29.5699 0.453065 -1.2199 -1.3177 2.09347 -12.5424 -21.0525 7.0707 -6.44563 41.5273 10.8448 -7.6685 -16.908 7.84098 6.12413 -18.0868 6.22089 1.85901 8.90999 -2.87872 1.85428 8.91026 -2.87788 3.13936 -5.542 7.69951 -17.4591 11.0346 -17.3032 -55.1997 33.0073 7.4272 11.79 -7.26013 -35.2388 10.4839 -0.561428 -5.49925 -3.18055e-015 7.95139e-016 2.98177e-016 -3.18055e-015 0 -3.97569e-016 19.5587 8.56397 8.17017 62.6453 -62.465 3.02538 -28.3234 -1.53486 77.7445 -38.3887 -49.8636 -13.6268 6.36111e-015 -1.59028e-015 -7.95139e-016 3.18055e-015 -1.59028e-015 -7.95139e-016 -7.4919 1.69383 9.97119 
45.8343 88.0652 -27.0667 -2.55036 -9.84823 -27.0806 0.853345 4.50565 -1.14142 0.586044 -4.65573 15.1866 -13.6319 40.1052 29.006 1.2684 -30.08 0.396853 -1.39373 -0.762513 2.07183 -12.6488 -19.1559 5.04874 -6.93084 41.2025 11.137 -7.78275 -16.8505 7.49116 6.11133 -18.0524 6.19606 1.80596 8.99273 -2.36125 1.80785 8.9927 -2.36155 3.4989 -6.83283 5.74085 -18.2322 11.8197 -15.4346 -56.0721 33.1954 7.63107 13.1233 -5.78312 -35.7779 10.2115 -0.629802 -6.19248 3.18055e-015 1.98785e-015 -3.97569e-016 1.93108e-032 1.39149e-015 -7.95139e-016 18.3582 10.9777 11.7058 70.9961 -57.1638 13.4544 -27.2933 -1.93967 77.6352 -38.9713 -51.1556 -14.1909 3.18055e-015 0 7.95139e-016 1.59028e-015 0 -0 -8.33381 3.24231 8.40611 
45.5901 88.3219 -27.0788 -3.48203 -10.5485 -25.0467 0.863726 4.60698 -0.831414 1.60034 -3.7778 14.5939 -13.0059 40.3359 27.1487 0.551961 -30.4551 0.242504 -1.61184 -0.038997 2.10263 -12.233 -16.7293 3.47807 -6.86469 39.9984 10.9887 -8.02625 -16.4063 6.79391 6.09225 -18.003 6.17772 1.80344 9.20029 -1.74111 1.80346 9.20031 -1.74112 4.70627 -7.32618 3.57038 -20.0248 11.7334 -13.3797 -56.523 33.6331 7.58954 14.1349 -4.75283 -36.0659 10.2897 -0.742307 -6.63852 3.18055e-015 3.97569e-016 1.98785e-016 3.18055e-015 0 -0 15.3054 12.6379 16.1211 75.3088 -47.8504 21.3479 -28.2236 -3.41583 74.7013 -38.2854 -52.5984 -13.704 7.95139e-016 0 1.98785e-016 7.95139e-016 -3.18056e-015 3.97569e-016 -10.8612 3.79904 7.27143 
45.567 88.7399 -27.422 -3.22736 -10.3156 -23.1834 0.672369 4.46133 -0.420062 1.9111 -4.01533 13.4627 -12.5025 39.6502 26.1914 -0.214751 -30.2397 0.0717092 -1.78345 0.773864 2.04218 -12.3684 -15.7665 3.18909 -5.47675 38.848 9.4413 -8.09348 -15.5639 5.92709 5.9822 -17.7416 6.06612 1.38395 8.91731 -0.896905 1.38395 8.91734 -0.896899 5.02024 -8.62153 1.77165 -20.9477 12.4351 -11.4929 -56.4875 33.7296 7.96004 14.969 -3.86777 -36.5347 9.89187 -0.841018 -6.80628 -9.54166e-015 -7.95139e-016 3.18055e-015 -9.54166e-015 0 1.59028e-015 12.1357 14.386 19.7614 75.4951 -33.7422 27.9263 -27.9345 -7.96953 67.3907 -41.2058 -52.3501 -14.2629 -7.95139e-016 -3.18055e-015 7.95139e-016 -2.38542e-015 0 7.95139e-016 -13.185 5.85984 6.37919 
45.2339 89.3649 -27.8186 -3.3695 -10.0175 -20.7323 0.545834 4.35011 -0.106407 2.72521 -4.11775 13.0995 -11.0285 38.7864 23.3995 0.0243107 -29.1437 0.123509 -1.55874 0.799195 1.64861 -11.944 -14.1049 2.23228 -4.39216 36.8002 8.26338 -8.14578 -14.4092 4.91544 5.8167 -17.3626 5.92857 1.10455 8.699 -0.25563 1.10456 8.69901 -0.255635 4.13777 -9.79246 0.473279 -20.9224 13.1411 -9.8372 -55.6191 34.0621 8.1035 15.608 -2.88224 -36.6541 9.41983 -0.66718 -6.74642 9.54166e-015 -3.97569e-015 -0 6.36111e-015 -3.18056e-015 7.95139e-016 10.3717 15.9261 23.9819 68.2907 -20.9917 32.8359 -25.6719 -14.4752 59.5519 -36.6144 -52.8107 -13.1684 -6.17947e-031 -2.22639e-014 -1.59028e-015 -3.18055e-015 -1.90833e-014 -1.59028e-015 -15.1337 8.74859 5.78824 
44.6852 90.1968 -28.2339 -3.5291 -9.71053 -17.849 0.374046 4.27494 0.282257 3.7879 -3.96172 12.9441 -9.41791 37.0805 19.7203 1.13042 -27.1862 0.328825 -0.786216 0.147124 0.832117 -11.2409 -11.8756 0.898791 -3.44191 33.7783 6.99566 -8.09719 -13.0178 3.8629 5.6177 -16.9146 5.78588 0.729976 8.55165 0.538657 0.729978 8.55164 0.538656 1.83352 -10.4596 -0.613982 -19.8634 13.6597 -8.92675 -53.3619 35.0476 7.64515 15.9602 -2.11608 -36.3892 8.85575 -0.165482 -6.46957 -6.36111e-015 -3.18055e-015 7.95139e-016 -6.36111e-015 -6.36111e-015 -0 9.75507 16.5985 27.8386 61.606 -14.4243 37.9044 -46.5497 -4.98141 49.8103 -34.5294 -47.3813 -12.6358 -8.82781e-032 -3.18055e-015 -1.59028e-015 -3.18055e-015 -3.18056e-015 -3.18055e-015 -15.4404 12.3979 4.88239 
